<svg version="1.0" xmlns="http://www.w3.org/2000/svg" fill="#fff" viewBox="0 0 307 250"><path d="M175.98 140.17h3.53c-1.03 1.11-1.57 1.73-2.15 2.32-4.24 4.25-8.51 8.45-12.71 12.74-5.12 5.23-5.34 12.35-.64 17.25 4.72 4.92 12.17 4.93 17.43-.27a3822.11 3822.11 0 0035.44-35.46c4.93-4.99 4.92-12.05-.01-17.04-11.74-11.89-23.6-23.66-35.42-35.47-2.18-2.18-4.77-3.62-7.91-3.82-5.05-.33-9.56 2.29-11.72 6.75-2.16 4.47-1.46 9.58 2.13 13.33 4.44 4.64 9.06 9.12 13.59 13.68.54.55 1.03 1.15 1.89 2.13h-3.45c-44.3 0-88.6-.01-132.89.02-1.78 0-3.61.08-5.33.48-4.74 1.08-7.05 4.71-8.77 8.86v5.14c2.62 7.25 7.92 9.49 15.39 9.45 43.86-.19 87.73-.09 131.6-.09z"/><path d="M191.66 29.65C159 29.65 128.82 46 110.94 73.4c-3.62 5.55-2.06 12.98 3.49 16.61 5.55 3.62 12.99 2.06 16.61-3.49 13.44-20.58 36.1-32.87 60.63-32.87 39.9 0 72.35 32.46 72.35 72.35 0 39.9-32.46 72.35-72.35 72.35-24.53 0-47.2-12.29-60.63-32.87-3.62-5.55-11.06-7.11-16.61-3.49-5.55 3.62-7.11 11.06-3.49 16.61 17.88 27.39 48.06 43.75 80.73 43.75 53.13 0 96.35-43.22 96.35-96.35-.01-53.13-43.23-96.35-96.36-96.35z"/></svg>