<svg xmlns="http://www.w3.org/2000/svg" id="Layer_1" x="0" y="0" version="1.1" viewBox="0 0 526.5 170.6" xml:space="preserve"><defs/><style>.st0{fill:#fff}</style><path id="q" d="M254 61.5c.1 4.8-1.2 9.5-3.9 13.5l4.9 4.9-5.5 5.6-5-5c-3.6 2.1-7.7 3.2-11.8 3.1-14.8 0-21.3-10.8-21.4-21.6s6.8-21.7 21.4-21.7 21.1 10.5 21.3 21.2zm-35 .7c.1 6.8 4.6 14.1 13.7 14.1 9.4 0 13.9-7.9 13.6-15-.3-6.7-3.8-14-13.6-14s-13.8 7.9-13.7 14.9z" class="st0"/><path id="u" d="M296.2 41.3v23.8c0 12.3-7.5 18.6-18 18.6-10 0-18.5-6.1-18.5-18.6V41.3h7.8v23.8c0 7.5 4.3 11.5 10.8 11.5s10.2-4.3 10.2-11.5V41.3h7.7z" class="st0"/><path id="a" d="M333.4 75h-21.7l-3.6 7.8h-8.5l18.6-41.6h8.6l18.6 41.6h-8.6l-3.4-7.8zm-10.9-25l-7.7 17.7h15.4L322.5 50z" class="st0"/><path id="d" d="M386.8 61.7c.2 10.5-6.2 21.1-20.8 21.1h-16.3V41.3H366c14.3 0 20.7 10.1 20.8 20.4zm-29.3 13.6h8.5c9.5 0 13.2-6.9 13-13.7-.2-6.5-4-13-13-13h-8.5v26.7z" class="st0"/><path id="f" d="M211.3 132.6V91h30v7.5h-22.1v11.4h20.9v7.3h-20.9v15.4h-7.9z" class="st0"/><path id="i" d="M247.4 132.6V90.9h7.8v41.7h-7.8z" class="st0"/><path id="n" d="M290 90.9h7.9v41.8H293v.1l-22-28.2v28.1h-7.9V90.9h6.4l20.5 25.9V90.9z" class="st0"/><path id="a_1_" d="M334.6 124.8h-21.8l-3.6 7.9h-8.5L319.4 91h8.6l18.7 41.7h-8.6l-3.5-7.9zm-10.9-25.1l-7.7 17.8h15.5l-7.8-17.8z" class="st0"/><path id="n_1_" d="M377.7 90.9h7.9v41.8h-4.9v.1l-21.9-28.2v28.1h-7.9V90.9h6.4l20.4 25.9V90.9z" class="st0"/><path id="c" d="M429.5 127.4c-4.2 4.1-9.9 6.3-15.9 6.2-15.5 0-22-10.7-22.1-21.5s7-22 22.1-22c5.8 0 11.3 2.3 15.3 6.4l-5.2 5c-2.7-2.6-6.3-4-10.1-3.9-10.1 0-14.4 7.5-14.4 14.5s4 14.1 14.4 14.1c3.9 0 7.7-1.5 10.5-4.2l5.4 5.4z" class="st0"/><path id="i_1_" d="M434.1 132.6V90.9h7.8v41.7h-7.8z" class="st0"/><path id="a_2_" d="M478.9 124.8h-21.8l-3.6 7.9H445L463.7 91h8.6l18.7 41.7h-8.6l-3.5-7.9zM468 99.7l-7.7 17.8h15.5L468 99.7z" class="st0"/><path id="l" d="M503 90.9v34.4h21.5v7.3h-29.3V90.9h7.8z" class="st0"/><radialGradient id="Q_Circle_1_" cx="95.222" cy="95.774" r="124.349" fx="219.469" fy="90.749" gradientTransform="matrix(.6515 .7587 -.6963 .598 99.875 -33.735)" gradientUnits="userSpaceOnUse"><stop offset=".135" stop-color="#ae0000"/><stop offset=".492" stop-color="#d22d33"/></radialGradient><path id="Q_Circle" fill="url(#Q_Circle_1_)" d="M85.4 1.9C39.2 1.9 1.8 39.3 1.8 85.5s37.4 83.6 83.6 83.6c46.2 0 83.6-37.4 83.6-83.6S131.6 1.9 85.4 1.9zm0 121.2c-20.8 0-37.6-16.8-37.6-37.6s16.8-37.6 37.6-37.6S123 64.7 123 85.5s-16.8 37.6-37.6 37.6z"/><path id="Dash_Circle" fill="#d22d33" d="M133.5 165.1l45.9-21-65.3-64.8-41.4 25 60.8 60.8z"/></svg>